<?xml version="1.0" encoding="UTF-8"?>
<svg version="1.1" xmlns="http://www.w3.org/2000/svg" width="943" height="166">
<path d="M0 0 C4.29 0 8.58 0 13 0 C16.25905427 8.5604492 19.45364602 17.10995354 22.23828125 25.83984375 C22.80844278 27.95234661 22.80844278 27.95234661 24 29 C27.3 19.43 30.6 9.86 34 0 C38.29 0 42.58 0 47 0 C47 14.52 47 29.04 47 44 C44.03 44 41.06 44 38 44 C37.505 31.625 37.505 31.625 37 19 C34.03 27.25 31.06 35.5 28 44 C25.03 44 22.06 44 19 44 C14.545 31.625 14.545 31.625 10 19 C9.67 27.25 9.34 35.5 9 44 C6.03 44 3.06 44 0 44 C0 29.48 0 14.96 0 0 Z " fill="#FBCA43" transform="translate(485,55)"/>
<path d="M0 0 C3.96 0 7.92 0 12 0 C14.97781885 3.2132447 16.55879382 5.36391302 18.5 9.125 C18.9846875 9.9809375 19.469375 10.836875 19.96875 11.71875 C20.87850204 13.32564898 21.76972602 14.94330285 22.63476562 16.57470703 C24.26801511 19.47611984 26.15311487 22.22967231 28 25 C28.33 16.75 28.66 8.5 29 0 C31.97 0 34.94 0 38 0 C38 14.52 38 29.04 38 44 C28 44 28 44 25.3359375 41.39453125 C24.64497727 40.22171937 23.99261865 39.0255379 23.375 37.8125 C22.83951538 36.87639893 22.83951538 36.87639893 22.29321289 35.92138672 C21.54849601 34.61874663 20.81788812 33.30794649 20.10107422 31.98974609 C18.69134049 29.44222284 17.16389686 26.97910068 15.61743164 24.51293945 C14.05953883 22.02024649 12.53279237 19.50820569 11 17 C10.67 25.91 10.34 34.82 10 44 C6.7 44 3.4 44 0 44 C0 29.48 0 14.96 0 0 Z " fill="#FBCA43" transform="translate(761,55)"/>
<path d="M0 0 C12 0 12 0 14.83105469 2.38671875 C15.74226074 4.02060547 15.74226074 4.02060547 16.671875 5.6875 C17.17911102 6.55314575 17.17911102 6.55314575 17.69659424 7.4362793 C18.75814176 9.26974308 19.75312301 11.13073502 20.75 13 C21.46202458 14.25495142 22.17813794 15.50759228 22.8984375 16.7578125 C24.65658717 19.81229372 26.32023531 22.89627235 28 26 C28.33 17.42 28.66 8.84 29 0 C31.97 0 34.94 0 38 0 C38 14.52 38 29.04 38 44 C28 44 28 44 25.84375 42.375 C25.4003125 41.59125 24.956875 40.8075 24.5 40 C23.96246094 39.10539062 23.42492187 38.21078125 22.87109375 37.2890625 C22.25363281 36.20367187 21.63617188 35.11828125 21 34 C19.70527695 31.91469385 18.39144114 29.84230111 17.07446289 27.77099609 C15.02780593 24.52767438 13.01766744 21.26143504 11 18 C10.67 26.58 10.34 35.16 10 44 C6.7 44 3.4 44 0 44 C0 29.48 0 14.96 0 0 Z " fill="#FBC943" transform="translate(306,55)"/>
<path d="M0 0 C3.63 0 7.26 0 11 0 C13.70905024 2.8179246 15.11130837 4.66673375 16.875 8 C17.308125 8.74378906 17.74125 9.48757812 18.1875 10.25390625 C19.00946484 11.66896548 19.8151657 13.09372043 20.59716797 14.53125 C22.61806701 18.08769467 24.83203018 21.53124828 27 25 C27.33 16.75 27.66 8.5 28 0 C30.97 0 33.94 0 37 0 C37 14.52 37 29.04 37 44 C27 44 27 44 24.51953125 41.84448242 C23.67455078 40.36492065 23.67455078 40.36492065 22.8125 38.85546875 C22.17699219 37.78619141 21.54148437 36.71691406 20.88671875 35.61523438 C20.26410156 34.48408203 19.64148438 33.35292969 19 32.1875 C18.34644531 31.06794922 17.69289063 29.94839844 17.01953125 28.79492188 C15.81125344 26.72091924 14.61815726 24.63794504 13.4453125 22.54370117 C12.37048358 20.65203859 11.20685791 18.81028686 10 17 C9.67 25.91 9.34 34.82 9 44 C6.03 44 3.06 44 0 44 C0 29.48 0 14.96 0 0 Z " fill="#FBC943" transform="translate(423,55)"/>
<path d="M0 0 C2.03845145 1.49690796 3.39535905 2.89076402 4.55859375 5.14453125 C4.55859375 6.13453125 4.55859375 7.12453125 4.55859375 8.14453125 C2.30859375 9.89453125 2.30859375 9.89453125 -0.44140625 11.14453125 C-2.75390625 10.83203125 -2.75390625 10.83203125 -4.44140625 10.14453125 C-4.44140625 9.48453125 -4.44140625 8.82453125 -4.44140625 8.14453125 C-11.18533934 6.23694165 -11.18533934 6.23694165 -17.94140625 7.33203125 C-20.7196476 9.34625623 -22.17695935 10.94385702 -22.92578125 14.34375 C-23.60833186 20.73764317 -23.73871862 26.39628475 -20.25390625 32.08203125 C-16.54613545 34.25555207 -12.78216989 34.38288923 -8.62890625 33.64453125 C-5.39911097 31.42981448 -5.19855703 28.86145326 -4.44140625 25.14453125 C-8.07140625 25.14453125 -11.70140625 25.14453125 -15.44140625 25.14453125 C-15.44140625 22.50453125 -15.44140625 19.86453125 -15.44140625 17.14453125 C-8.84140625 17.14453125 -2.24140625 17.14453125 4.55859375 17.14453125 C4.55859375 25.39453125 4.55859375 33.64453125 4.55859375 42.14453125 C1.58859375 42.14453125 -1.38140625 42.14453125 -4.44140625 42.14453125 C-4.77140625 41.48453125 -5.10140625 40.82453125 -5.44140625 40.14453125 C-6.03953125 40.63953125 -6.63765625 41.13453125 -7.25390625 41.64453125 C-11.9925837 43.87449711 -16.2938394 43.91486643 -21.44140625 43.14453125 C-26.75038248 41.03310535 -29.88535439 38.27860676 -32.44140625 33.14453125 C-34.71686429 24.15369703 -35.6730474 14.52585163 -31.36328125 6.015625 C-28.61427401 1.8486172 -25.51007397 -0.91280612 -20.6484375 -2.40625 C-13.51041698 -3.85912143 -6.35552416 -3.73932087 0 0 Z " fill="#FBC942" transform="translate(841.44140625,56.85546875)"/>
<path d="M0 0 C5.42875656 3.25725394 7.76991416 7.29929851 9.4375 13.3125 C10.19309062 21.79092963 10.83899534 31.19948433 5.4375 38.3125 C-0.61134636 43.99016715 -6.26596906 44.67487799 -14.26171875 44.5859375 C-20.27822658 44.08752857 -24.49841264 41.95162751 -28.4375 37.375 C-32.65922407 30.69179613 -33.09498761 22.08135583 -32 14.4375 C-30.66982644 8.69014633 -28.54692538 4.68872494 -23.9140625 1 C-16.94915978 -3.23183963 -7.35132079 -3.3664927 0 0 Z M-18.5625 9.3125 C-22.43059065 13.49616915 -22.55423758 17.80972892 -22.5625 23.3125 C-22.16159771 27.58393168 -21.27619567 30.56022619 -18.25 33.75 C-15.42123711 35.39462959 -13.83094894 36.23467979 -10.5625 36.3125 C-6.80142705 35.14527047 -4.31545525 34.28506719 -1.875 31.1328125 C-0.26512432 27.6734963 -0.16289585 25.11794246 -0.1875 21.3125 C-0.17976563 20.11625 -0.17203125 18.92 -0.1640625 17.6875 C-0.59392755 14.0462902 -1.31528622 12.18336714 -3.5625 9.3125 C-9.11020376 5.76342314 -12.97225346 6.04135137 -18.5625 9.3125 Z " fill="#FBC943" transform="translate(404.5625,55.6875)"/>
<path d="M0 0 C4.00125 -0.0825 8.0025 -0.165 12.125 -0.25 C13.37555176 -0.28641602 14.62610352 -0.32283203 15.91455078 -0.36035156 C22.21069078 -0.42324196 26.3175209 -0.42634349 31 4 C33.32201371 8.5430703 33.33438363 12.10726004 32 17 C29.4375 19.8125 29.4375 19.8125 27 22 C26.78746467 24.09139803 26.78746467 24.09139803 28.33203125 25.609375 C30.64292291 28.92147265 31.56190029 32.40051701 32.6875 36.25 C32.91244141 36.99507812 33.13738281 37.74015625 33.36914062 38.5078125 C33.92004959 40.3363614 34.46102146 42.16789905 35 44 C31.7 44 28.4 44 25 44 C24.401875 42.47375 23.80375 40.9475 23.1875 39.375 C22.81496094 38.46492188 22.44242188 37.55484375 22.05859375 36.6171875 C21.24137759 34.59676379 20.48302465 32.55246902 19.75 30.5 C17.70527216 26.99742861 17.70527216 26.99742861 10 26 C10 31.94 10 37.88 10 44 C6.7 44 3.4 44 0 44 C0 29.48 0 14.96 0 0 Z M10 7 C10 10.63 10 14.26 10 18 C11.77375 18.04125 13.5475 18.0825 15.375 18.125 C16.37273438 18.14820313 17.37046875 18.17140625 18.3984375 18.1953125 C21.16262173 18.27216848 21.16262173 18.27216848 23 16 C23.58345476 13.04253508 23.58345476 13.04253508 23 10 C20.06011927 7.24386182 17.57695599 6.83322534 13.6875 6.8125 C11.8621875 6.9053125 11.8621875 6.9053125 10 7 Z " fill="#FBC943" transform="translate(585,55)"/>
<path d="M0 0 C3.3 0 6.6 0 10 0 C10.33 5.28 10.66 10.56 11 16 C12.216875 14.47375 13.43375 12.9475 14.6875 11.375 C15.42613281 10.4675 16.16476562 9.56 16.92578125 8.625 C18.9433604 6.15683386 18.9433604 6.15683386 20.29296875 4 C21.375 2.375 21.375 2.375 24 0 C27.39262851 -0.48241395 30.59971698 -0.35653453 34 0 C32.27932188 5.51235207 28.67786138 9.07162807 24.90039062 13.27148438 C21.38423106 17.14149043 21.38423106 17.14149043 20 22 C21.0033555 23.95110879 21.0033555 23.95110879 22.640625 25.75 C23.21683594 26.4409375 23.79304687 27.131875 24.38671875 27.84375 C25.30904297 28.91109375 25.30904297 28.91109375 26.25 30 C27.44310575 31.41633198 28.63582624 32.83298861 29.828125 34.25 C30.3634082 34.87390625 30.89869141 35.4978125 31.45019531 36.140625 C36 41.59924386 36 41.59924386 36 44 C32.16444785 44.64523307 28.82133854 44.80371378 25 44 C21.32688128 41.15683787 18.71309784 37.74614111 16 34 C15.44957031 33.26652344 14.89914062 32.53304687 14.33203125 31.77734375 C13.18416658 30.21148914 12.08502432 28.61003608 11 27 C10.67 32.61 10.34 38.22 10 44 C6.7 44 3.4 44 0 44 C0 29.48 0 14.96 0 0 Z " fill="#FBC943" transform="translate(626,55)"/>
<path d="M0 0 C4.29 0 8.58 0 13 0 C15.13819952 6.10486292 17.27439145 12.21042306 19.40869141 18.31665039 C20.13567265 20.39562158 20.86321091 22.47439807 21.59130859 24.55297852 C22.6352408 27.53351148 23.67719505 30.51472935 24.71875 33.49609375 C25.04685669 34.43150497 25.37496338 35.3669162 25.7130127 36.33067322 C26.01332397 37.19149002 26.31363525 38.05230682 26.62304688 38.93920898 C26.88952026 39.70087875 27.15599365 40.46254852 27.43054199 41.24729919 C28 43 28 43 28 44 C24.37 44 20.74 44 17 44 C15.515 39.545 15.515 39.545 14 35 C8.72 34.67 3.44 34.34 -2 34 C-2.309375 35.464375 -2.61875 36.92875 -2.9375 38.4375 C-3.875 42.875 -3.875 42.875 -5 44 C-6.68608966 44.07205511 -8.37500659 44.08386068 -10.0625 44.0625 C-10.98160156 44.05347656 -11.90070312 44.04445312 -12.84765625 44.03515625 C-13.55792969 44.02355469 -14.26820313 44.01195312 -15 44 C-13.34791671 39.01887513 -11.69379225 34.03843434 -10.0378418 29.05859375 C-9.47576819 27.36737025 -8.91423517 25.67596698 -8.35327148 23.984375 C-7.54295534 21.54118178 -6.73064296 19.09865973 -5.91796875 16.65625 C-5.67096725 15.91008423 -5.42396576 15.16391846 -5.16947937 14.3951416 C-3.5552514 9.55194972 -1.81734301 4.77082005 0 0 Z M6 11 C3.72623708 15.96093728 2.21376034 20.67812773 1 26 C4.3 26 7.6 26 11 26 C9.91266548 20.87399439 8.77362508 15.94081272 7 11 C6.67 11 6.34 11 6 11 Z " fill="#FBC943" transform="translate(552,55)"/>
<path d="M0 0 C3.3 0 6.6 0 10 0 C10.01458252 0.91813477 10.02916504 1.83626953 10.04418945 2.78222656 C10.10533515 6.19687909 10.17950217 9.61073672 10.26245117 13.02490234 C10.29565355 14.50103138 10.32370017 15.97728594 10.34643555 17.45361328 C10.38006951 19.57899332 10.43238519 21.70322804 10.48828125 23.828125 C10.51446533 25.1059082 10.54064941 26.38369141 10.56762695 27.70019531 C11.02046022 31.15614926 11.5290517 32.59092609 14 35 C17.2872532 36.00046837 19.39949812 36.1364777 22.75 35.375 C25.69768691 33.57363578 25.97945596 32.27525398 27 29 C27.36356069 25.7132943 27.36356069 25.7132943 27.4140625 22.16796875 C27.45273437 20.87568359 27.49140625 19.58339844 27.53125 18.25195312 C27.56270014 16.89714005 27.59394761 15.54232225 27.625 14.1875 C27.6632175 12.81312728 27.7022714 11.43877756 27.7421875 10.06445312 C27.83635404 6.70977011 27.921982 3.35509107 28 0 C30.97 0 33.94 0 37 0 C37.07445407 4.73222455 37.1287447 9.46410411 37.16479492 14.19677734 C37.17983176 15.80491072 37.20026672 17.41300344 37.22631836 19.02099609 C37.26292822 21.33962064 37.27977722 23.65770049 37.29296875 25.9765625 C37.30845261 26.68930328 37.32393646 27.40204407 37.33988953 28.13638306 C37.34145859 32.84685152 36.47364195 35.99885735 34 40 C28.18994268 45.51210566 22.87525887 45.29283576 15.13671875 45.21484375 C10.04069746 44.8658012 7.34592917 43.30854225 3.75 39.8125 C-1.14416421 31.94687896 -0.23875795 22.93437421 -0.125 14 C-0.11494978 12.63932951 -0.10582754 11.27865183 -0.09765625 9.91796875 C-0.0742082 6.61179353 -0.04138856 3.3059912 0 0 Z " fill="#FBC943" transform="translate(259,55)"/>
<path d="M0 0 C9.9 0 19.8 0 30 0 C30 2.64 30 5.28 30 8 C23.4 8 16.8 8 10 8 C10 10.97 10 13.94 10 17 C15.94 17 21.88 17 28 17 C28 19.64 28 22.28 28 25 C22.06 25 16.12 25 10 25 C10 28.63 10 32.26 10 36 C16.93 36 23.86 36 31 36 C31 38.64 31 41.28 31 44 C20.77 44 10.54 44 0 44 C0 29.48 0 14.96 0 0 Z " fill="#FBC943" transform="translate(667,55)"/>
<path d="M0 0 C11.55 0 23.1 0 35 0 C35 2.64 35 5.28 35 8 C31.04 8 27.08 8 23 8 C23 19.88 23 31.76 23 44 C19.7 44 16.4 44 13 44 C13 32.12 13 20.24 13 8 C8.71 8 4.42 8 0 8 C0 5.36 0 2.72 0 0 Z " fill="#FBC943" transform="translate(700,55)"/>
<path d="M0 0 C2.125 0.375 2.125 0.375 4 1 C4 1.66 4 2.32 4 3 C4.66 3.33 5.32 3.66 6 4 C7.25870847 4.94686628 8.50747902 5.90698947 9.75 6.875 C13.94166919 10.02253499 17.65014358 12.65002138 22.9375 13.4375 C25.94350934 13.00807009 27.132921 12.44251238 29.625 10.875 C33 9 33 9 35.3125 9.5 C37.20436485 11.18165765 38.0649156 12.66228899 39 15 C36.50754779 17.75950066 34.79699009 19.62030099 31 20 C30.34 19.67 29.68 19.34 29 19 C29 19.66 29 20.32 29 21 C27.25034642 21.05429959 25.50020213 21.09292823 23.75 21.125 C22.77546875 21.14820312 21.8009375 21.17140625 20.796875 21.1953125 C15.66842939 20.83718082 12.17064622 17.84362242 8 15 C7.87882812 15.65226562 7.75765625 16.30453125 7.6328125 16.9765625 C4.99852175 30.71540194 4.99852175 30.71540194 -2 36 C-2.495 36.5775 -2.99 37.155 -3.5 37.75 C-5.76776163 39.63980136 -8.13164367 39.68129374 -11 40 C-12.25984998 37.92495298 -12.98608195 36.44537763 -13.0625 34 C-11.60032768 31.24767563 -9.4042216 30.46967522 -6.71875 29.06640625 C-3.68067075 27.18141617 -2.46506086 24.50498862 -1.4375 21.1796875 C-0.34485866 15.73599224 -0.67135814 9.87325858 -1.625 4.4375 C-1.74875 3.633125 -1.8725 2.82875 -2 2 C-1.34 1.34 -0.68 0.68 0 0 Z " fill="#FBC539" transform="translate(126,64)"/>
<path d="M0 0 C2.15827162 3.23740742 2.73320331 4.24233303 2 8 C-2.97297297 12 -2.97297297 12 -6 12 C-7.66489182 15.92438786 -8.87204037 19.89100419 -10 24 C-10.66 24 -11.32 24 -12 24 C-11.43179252 29.45479185 -10.05362055 33.91059256 -8 39 C-11 41 -11 41 -13.0625 40.875 C-15.57283417 39.7413007 -16.02691202 38.51381062 -17 36 C-17.66 36 -18.32 36 -19 36 C-20.625 34.625 -20.625 34.625 -22 33 C-22 32.34 -22 31.68 -22 31 C-23.36125 30.7834375 -23.36125 30.7834375 -24.75 30.5625 C-28 30 -28 30 -29.9375 29.4375 C-33.01067314 28.78561479 -35.87162471 28.82936135 -39 29 C-39.99 29.66 -40.98 30.32 -42 31 C-44.6875 31.125 -44.6875 31.125 -47 31 C-47 30.01 -47 29.02 -47 28 C-47.66 28 -48.32 28 -49 28 C-48.67 26.35 -48.34 24.7 -48 23 C-38.72436868 20.25166479 -28.92254945 19.53872528 -20 24 C-17.58749273 18.6400004 -17.58749273 18.6400004 -16 13 C-15.34 13 -14.68 13 -14 13 C-13.9175 12.236875 -13.835 11.47375 -13.75 10.6875 C-12.84730645 7.45284809 -11.86406539 6.64900735 -9 5 C-8.34 5 -7.68 5 -7 5 C-6.67 4.34 -6.34 3.68 -6 3 C-2.42307692 0 -2.42307692 0 0 0 Z " fill="#FBC63A" transform="translate(221,73)"/>
<path d="M0 0 C0.33 0.66 0.66 1.32 1 2 C1.721875 2.226875 2.44375 2.45375 3.1875 2.6875 C7.23213556 4.57499659 9.6590231 7.21896762 12 11 C12.77978544 13.39726118 13.2835987 15.69164768 13.67578125 18.1796875 C13.82342874 20.01414815 13.82342874 20.01414815 15 21 C15.04080783 22.99958364 15.04254356 25.00045254 15 27 C15.928125 26.690625 16.85625 26.38125 17.8125 26.0625 C21.88152145 24.70615952 24.90428031 23.88187377 29.1875 23.9375 C30.08855469 23.94652344 30.98960937 23.95554687 31.91796875 23.96484375 C32.60503906 23.97644531 33.29210937 23.98804687 34 24 C34 24.66 34 25.32 34 26 C34.99 25.67 35.98 25.34 37 25 C42.35714286 27.35714286 42.35714286 27.35714286 44 29 C44.04080783 30.99958364 44.04254356 33.00045254 44 35 C43.34 35 42.68 35 42 35 C42 35.66 42 36.32 42 37 C39.24122821 35.94517549 36.82328949 34.88904224 34.3125 33.3125 C29.66138886 31.46960691 25.81928586 31.82265003 21 33 C17.65247442 34.81378992 17.65247442 34.81378992 15 37 C14.2575 37.350625 13.515 37.70125 12.75 38.0625 C10.65383728 39.00845852 10.65383728 39.00845852 9 42 C7.02 41.34 5.04 40.68 3 40 C3.309375 39.2575 3.61875 38.515 3.9375 37.75 C4.8094925 35.49307824 5.47667007 33.3549847 6 31 C6.66 31 7.32 31 8 31 C7.814375 30.113125 7.62875 29.22625 7.4375 28.3125 C7.01957516 25.14821189 7.19222258 23.05160358 8 20 C7.34 20 6.68 20 6 20 C5.79375 19.278125 5.5875 18.55625 5.375 17.8125 C3.6003512 14.18253654 1.13869148 12.4981422 -2 10 C-3.875 7.6875 -3.875 7.6875 -5 6 C-3.35 4.02 -1.7 2.04 0 0 Z M13 27 C13.33 27.66 13.66 28.32 14 29 C14.33 28.34 14.66 27.68 15 27 C14.34 27 13.68 27 13 27 Z " fill="#FBC83A" transform="translate(163,96)"/>
<path d="M0 0 C3.625 -0.1875 3.625 -0.1875 7 0 C8.49084832 4.47254497 8.49084832 8.52745503 7 13 C7.99 13.33 8.98 13.66 10 14 C10.33 14.99 10.66 15.98 11 17 C13.01818999 18.64121356 13.01818999 18.64121356 15.4375 20.125 C16.24058594 20.64320312 17.04367188 21.16140625 17.87109375 21.6953125 C19.94553997 23.00862664 19.94553997 23.00862664 22 24 C22 24.66 22 25.32 22 26 C23.98 25.67 25.96 25.34 28 25 C28.04241723 27.33294775 28.04092937 29.66702567 28 32 C27 33 27 33 24.0625 33.125 C21 33 21 33 19 32 C19 32.66 19 33.32 19 34 C17.96875 34.350625 16.9375 34.70125 15.875 35.0625 C11.49725993 36.92593722 8.49839879 39.97327668 6 44 C6 44.99 6 45.98 6 47 C5.34 47 4.68 47 4 47 C4.33 48.98 4.66 50.96 5 53 C2.04335481 54.4783226 -0.74229737 54.06032783 -4 54 C-4.43328368 47.06746106 -2.85991763 41.78987645 1 36 C1.66 36 2.32 36 3 36 C3 35.34 3 34.68 3 34 C3.66 34 4.32 34 5 34 C5 33.34 5 32.68 5 32 C6.32 31.67 7.64 31.34 9 31 C9 30.34 9 29.68 9 29 C9.99 28.67 10.98 28.34 12 28 C10.88625 27.13375 10.88625 27.13375 9.75 26.25 C3.14505283 20.84595231 -0.53208612 15.18805085 -1.875 6.625 C-2 3 -2 3 0 0 Z " fill="#FBC53C" transform="translate(181,36)"/>
<path d="M0 0 C3.125 0.375 3.125 0.375 6 1 C5.85930804 3.12534659 5.71229079 5.25027529 5.5625 7.375 C5.48128906 8.55835937 5.40007812 9.74171875 5.31640625 10.9609375 C5 14 5 14 4 16 C3.34 16 2.68 16 2 16 C1.773125 16.78375 1.54625 17.5675 1.3125 18.375 C0 21 0 21 -2.5625 22.1875 C-3.366875 22.455625 -4.17125 22.72375 -5 23 C-5.33 23.66 -5.66 24.32 -6 25 C-6.66 25.33 -7.32 25.66 -8 26 C-6.99554337 28.24071094 -6.12245015 29.87754985 -4.375 31.625 C-3.92125 32.07875 -3.4675 32.5325 -3 33 C-3 33.66 -3 34.32 -3 35 C-2.37738281 35.24621094 -1.75476563 35.49242187 -1.11328125 35.74609375 C2.11596534 37.66215319 2.49099897 39.9977439 3.5390625 43.46875 C4.27661408 47.51903324 3.70532825 50.96039278 3 55 C-1.75 56.125 -1.75 56.125 -4 55 C-4.34375 53.14453125 -4.34375 53.14453125 -4.5 50.8125 C-5.07523468 44.94881748 -5.72840596 40.87595896 -10.25 36.8125 C-13.29558553 34.3798625 -16.42033135 32.57156185 -20 31 C-20 30.34 -20 29.68 -20 29 C-21.65 29.33 -23.3 29.66 -25 30 C-27 26.25 -27 26.25 -27 24 C-26.443125 23.90203125 -25.88625 23.8040625 -25.3125 23.703125 C-17.07938764 22.08988001 -10.55506097 19.53536585 -5 13 C-3.22237329 10.33355993 -2.9486825 8.62794814 -2.5 5.375 C-2 2 -2 2 0 0 Z " fill="#FBC43B" transform="translate(153,87)"/>
<path d="M0 0 C1.9375 0.8125 1.9375 0.8125 4 2 C5.13643966 5.40931897 4.86747764 6.00335456 3.5625 9.1875 C3.13130859 10.26064453 3.13130859 10.26064453 2.69140625 11.35546875 C2.34916016 12.16951172 2.34916016 12.16951172 2 13 C1.34 13 0.68 13 0 13 C0.23807411 20.49933459 2.03854647 25.30087233 7 31 C8.63377642 32.05287814 10.29181597 33.0727001 12 34 C13.0625 35.9375 13.0625 35.9375 13 38 C11.1875 40.25 11.1875 40.25 9 42 C8.34 42 7.68 42 7 42 C7 41.34 7 40.68 7 40 C5.35 39.34 3.7 38.68 2 38 C2 37.34 2 36.68 2 36 C1.34 36 0.68 36 0 36 C-0.268125 35.401875 -0.53625 34.80375 -0.8125 34.1875 C-1.85407364 31.9691873 -1.85407364 31.9691873 -3.5625 30.625 C-5.67071276 28.24180297 -5.64485627 26.13710297 -6 23 C-6.18657671 21.54154825 -6.37409327 20.08321647 -6.5625 18.625 C-6.706875 17.42875 -6.85125 16.2325 -7 15 C-7.66 15.66 -8.32 16.32 -9 17 C-12.625 17.125 -12.625 17.125 -16 17 C-16 17.66 -16 18.32 -16 19 C-18.97 19 -21.94 19 -25 19 C-25 18.34 -25 17.68 -25 17 C-26.32 17.33 -27.64 17.66 -29 18 C-29 17.34 -29 16.68 -29 16 C-30.423125 15.9071875 -30.423125 15.9071875 -31.875 15.8125 C-32.90625 15.544375 -33.9375 15.27625 -35 15 C-36.375 12.4375 -36.375 12.4375 -37 10 C-36.34 10 -35.68 10 -35 10 C-34.34 8.68 -33.68 7.36 -33 6 C-29.51329166 7.1094072 -26.22515763 8.26337666 -23 10 C-23 10.66 -23 11.32 -23 12 C-17.68014296 11.48781864 -13.4618602 10.13365448 -8.6875 7.6875 C-8.06810547 7.39166016 -7.44871094 7.09582031 -6.81054688 6.79101562 C-4.07321594 5.41491983 -2.24469561 4.38490686 -0.58203125 1.76953125 C-0.38996094 1.18558594 -0.19789063 0.60164063 0 0 Z " fill="#FBC73B" transform="translate(165,39)"/>
<path d="M0 0 C3.3 0 6.6 0 10 0 C10 14.52 10 29.04 10 44 C6.7 44 3.4 44 0 44 C0 29.48 0 14.96 0 0 Z " fill="#FAC943" transform="translate(741,55)"/>
<path d="M0 0 C3.3 0 6.6 0 10 0 C10 14.52 10 29.04 10 44 C6.7 44 3.4 44 0 44 C0 29.48 0 14.96 0 0 Z " fill="#FBCB43" transform="translate(354,55)"/>
<path d="M0 0 C1.32 0 2.64 0 4 0 C4.33 0.66 4.66 1.32 5 2 C5.33 1.34 5.66 0.68 6 0 C9.95827235 -0.05785647 13.9164367 -0.09354717 17.875 -0.125 C19.00292969 -0.14175781 20.13085938 -0.15851563 21.29296875 -0.17578125 C22.36933594 -0.18222656 23.44570313 -0.18867187 24.5546875 -0.1953125 C25.54968262 -0.20578613 26.54467773 -0.21625977 27.56982422 -0.22705078 C30 0 30 0 32 2 C31.9765625 4.1640625 31.9765625 4.1640625 31.625 6.625 C31.45871094 7.85089844 31.45871094 7.85089844 31.2890625 9.1015625 C31.14597656 10.04128906 31.14597656 10.04128906 31 11 C31.66 11 32.32 11 33 11 C33.185625 9.6696875 33.185625 9.6696875 33.375 8.3125 C33.94412736 5.29612498 34.76614436 2.79673946 36 0 C38.475 0.495 38.475 0.495 41 1 C42.32 4.96 43.64 8.92 45 13 C41.95724864 12.39144973 38.99354776 11.77610498 36 11 C36 11.66 36 12.32 36 13 C34.72125 13.061875 33.4425 13.12375 32.125 13.1875 C31.40570312 13.22230469 30.68640625 13.25710937 29.9453125 13.29296875 C29.30335938 13.19628906 28.66140625 13.09960938 28 13 C27.34 12.01 26.68 11.02 26 10 C25.67 10.99 25.34 11.98 25 13 C22.04142591 13.05379226 19.08382279 13.09357093 16.125 13.125 C14.86236328 13.15013672 14.86236328 13.15013672 13.57421875 13.17578125 C12.76855469 13.18222656 11.96289062 13.18867188 11.1328125 13.1953125 C10.01737061 13.21102295 10.01737061 13.21102295 8.87939453 13.22705078 C7 13 7 13 5 11 C4.67 11.66 4.34 12.32 4 13 C2.68 13 1.36 13 0 13 C0 8.71 0 4.42 0 0 Z M10 1 C8.19546354 2.6549514 8.19546354 2.6549514 7 5 C7.56911789 7.71475105 7.56911789 7.71475105 9 10 C9.66 10.33 10.32 10.66 11 11 C11 7.7 11 4.4 11 1 C10.67 1 10.34 1 10 1 Z M15 3 C15 3.66 15 4.32 15 5 C16.65 5 18.3 5 20 5 C20 5.99 20 6.98 20 8 C18.35 8 16.7 8 15 8 C15 8.66 15 9.32 15 10 C16.98 10 18.96 10 21 10 C21 7.69 21 5.38 21 3 C19.02 3 17.04 3 15 3 Z M25 3 C25 3.99 25 4.98 25 6 C25.99 5.67 26.98 5.34 28 5 C28 4.34 28 3.68 28 3 C27.01 3 26.02 3 25 3 Z M38 6 C39 8 39 8 39 8 Z " fill="#FCC240" transform="translate(784,121)"/>
<path d="M0 0 C6.8359375 -0.29296875 6.8359375 -0.29296875 9 0 C9.66 0.99 10.32 1.98 11 3 C11.350625 2.505 11.70125 2.01 12.0625 1.5 C15.01717332 -0.78748902 17.38658914 -0.39419028 21 0 C23.48038907 3.7205836 23.46337203 5.59796571 23 10 C21.375 12.5 21.375 12.5 19 14 C15.9375 14.125 15.9375 14.125 13 13 C11.125 9.9375 11.125 9.9375 10 7 C10.33 8.98 10.66 10.96 11 13 C8.5625 12.625 8.5625 12.625 6 12 C5.67 11.34 5.34 10.68 5 10 C4.67 10.99 4.34 11.98 4 13 C2.68 13 1.36 13 0 13 C0 8.71 0 4.42 0 0 Z M4 3 C4 3.99 4 4.98 4 6 C4.99 5.67 5.98 5.34 7 5 C7 4.34 7 3.68 7 3 C6.01 3 5.02 3 4 3 Z M16 3 C14.70366379 4.06645115 14.70366379 4.06645115 14.9375 6.5625 C14.958125 7.366875 14.97875 8.17125 15 9 C16.32 9.33 17.64 9.66 19 10 C19 7.69 19 5.38 19 3 C18.01 3 17.02 3 16 3 Z " fill="#FCC340" transform="translate(760,121)"/>
<path d="M0 0 C1.32 0 2.64 0 4 0 C4.66 1.32 5.32 2.64 6 4 C6.33 2.68 6.66 1.36 7 0 C8.32 0 9.64 0 11 0 C11 4.29 11 8.58 11 13 C9.35 12.67 7.7 12.34 6 12 C5.34 11.01 4.68 10.02 4 9 C3.67 10.32 3.34 11.64 3 13 C2.01 13 1.02 13 0 13 C0 8.71 0 4.42 0 0 Z " fill="#FCC241" transform="translate(715,121)"/>
<path d="M0 0 C3.5 0.25 3.5 0.25 5.5 2.25 C5.5 3.24 5.5 4.23 5.5 5.25 C4.18 5.25 2.86 5.25 1.5 5.25 C1.5 4.59 1.5 3.93 1.5 3.25 C0.51 3.25 -0.48 3.25 -1.5 3.25 C-1.5 5.23 -1.5 7.21 -1.5 9.25 C-1.17 9.25 -0.84 9.25 -0.5 9.25 C-0.5 8.26 -0.5 7.27 -0.5 6.25 C1.48 6.25 3.46 6.25 5.5 6.25 C5.6875 9.125 5.6875 9.125 5.5 12.25 C2.5 14.25 2.5 14.25 -0.5625 14 C-3.5 13.25 -3.5 13.25 -5.5 11.25 C-5.765625 9.15625 -5.765625 9.15625 -5.75 6.75 C-5.75515625 5.9559375 -5.7603125 5.161875 -5.765625 4.34375 C-5.27150997 0.44896095 -3.70978315 0.26498451 0 0 Z " fill="#FCC340" transform="translate(834.5,120.75)"/>
<path d="M0 0 C6.0546875 -0.1953125 6.0546875 -0.1953125 8 0 C10 2 10 2 10.23046875 4.34765625 C10.20919922 5.69150391 10.20919922 5.69150391 10.1875 7.0625 C10.17783203 8.41021484 10.17783203 8.41021484 10.16796875 9.78515625 C10 12 10 12 9 13 C5.99668982 13.14193337 3.00782866 13.04236378 0 13 C0 8.71 0 4.42 0 0 Z M3 3 C3 3.66 3 4.32 3 5 C3.99 5 4.98 5 6 5 C6 4.34 6 3.68 6 3 C5.01 3 4.02 3 3 3 Z M3 8 C3 8.66 3 9.32 3 10 C3.99 10 4.98 10 6 10 C6 9.34 6 8.68 6 8 C5.01 8 4.02 8 3 8 Z " fill="#FCC241" transform="translate(749,121)"/>
<path d="M0 0 C3.3 0 6.6 0 10 0 C10 0.99 10 1.98 10 3 C8.02 3 6.04 3 4 3 C4 3.66 4 4.32 4 5 C5.65 5 7.3 5 9 5 C9 5.99 9 6.98 9 8 C7.35 8 5.7 8 4 8 C4 8.66 4 9.32 4 10 C5.98 10 7.96 10 10 10 C10 10.99 10 11.98 10 13 C6.7 13 3.4 13 0 13 C0 8.71 0 4.42 0 0 Z " fill="#FCC241" transform="translate(841,121)"/>
<path d="M0 0 C3.5 -0.3125 3.5 -0.3125 7 0 C9 2 9 2 9 5 C6.61435923 4.42415568 4.33317216 3.77772405 2 3 C2 5.31 2 7.62 2 10 C2.598125 9.67 3.19625 9.34 3.8125 9 C6 8 6 8 9 8 C8.67 9.65 8.34 11.3 8 13 C5.25 13.75 5.25 13.75 2 14 C-0.375 12.5 -0.375 12.5 -2 10 C-2.46337203 5.59796571 -2.48038907 3.7205836 0 0 Z " fill="#FCC440" transform="translate(729,121)"/>
<path d="M0 0 C0.99 0 1.98 0 3 0 C3 4.29 3 8.58 3 13 C2.01 13 1.02 13 0 13 C0 8.71 0 4.42 0 0 Z " fill="#FCC141" transform="translate(710,121)"/>
<path d="M0 0 C1.32 0.33 2.64 0.66 4 1 C3.67 1.99 3.34 2.98 3 4 C2.01 3.67 1.02 3.34 0 3 C0 2.01 0 1.02 0 0 Z " fill="#FDC93C" transform="translate(739,131)"/>
</svg>
