<?xml version="1.0" encoding="UTF-8"?>
<svg version="1.1" xmlns="http://www.w3.org/2000/svg" width="127" height="122">
<path d="M0 0 C2.125 0.375 2.125 0.375 4 1 C4 1.66 4 2.32 4 3 C4.66 3.33 5.32 3.66 6 4 C7.25870847 4.94686628 8.50747902 5.90698947 9.75 6.875 C13.94166919 10.02253499 17.65014358 12.65002138 22.9375 13.4375 C25.94350934 13.00807009 27.132921 12.44251238 29.625 10.875 C33 9 33 9 35.3125 9.5 C37.20436485 11.18165765 38.0649156 12.66228899 39 15 C36.50754779 17.75950066 34.79699009 19.62030099 31 20 C30.34 19.67 29.68 19.34 29 19 C29 19.66 29 20.32 29 21 C27.25034642 21.05429959 25.50020213 21.09292823 23.75 21.125 C22.77546875 21.14820312 21.8009375 21.17140625 20.796875 21.1953125 C15.66842939 20.83718082 12.17064622 17.84362242 8 15 C7.87882812 15.65226562 7.75765625 16.30453125 7.6328125 16.9765625 C4.99852175 30.71540194 4.99852175 30.71540194 -2 36 C-2.495 36.5775 -2.99 37.155 -3.5 37.75 C-5.76776163 39.63980136 -8.13164367 39.68129374 -11 40 C-12.25984998 37.92495298 -12.98608195 36.44537763 -13.0625 34 C-11.60032768 31.24767563 -9.4042216 30.46967522 -6.71875 29.06640625 C-3.68067075 27.18141617 -2.46506086 24.50498862 -1.4375 21.1796875 C-0.34485866 15.73599224 -0.67135814 9.87325858 -1.625 4.4375 C-1.74875 3.633125 -1.8725 2.82875 -2 2 C-1.34 1.34 -0.68 0.68 0 0 Z " fill="#FBC539" transform="translate(22,36)"/>
<path d="M0 0 C2.15827162 3.23740742 2.73320331 4.24233303 2 8 C-2.97297297 12 -2.97297297 12 -6 12 C-7.66489182 15.92438786 -8.87204037 19.89100419 -10 24 C-10.66 24 -11.32 24 -12 24 C-11.43179252 29.45479185 -10.05362055 33.91059256 -8 39 C-11 41 -11 41 -13.0625 40.875 C-15.57283417 39.7413007 -16.02691202 38.51381062 -17 36 C-17.66 36 -18.32 36 -19 36 C-20.625 34.625 -20.625 34.625 -22 33 C-22 32.34 -22 31.68 -22 31 C-23.36125 30.7834375 -23.36125 30.7834375 -24.75 30.5625 C-28 30 -28 30 -29.9375 29.4375 C-33.01067314 28.78561479 -35.87162471 28.82936135 -39 29 C-39.99 29.66 -40.98 30.32 -42 31 C-44.6875 31.125 -44.6875 31.125 -47 31 C-47 30.01 -47 29.02 -47 28 C-47.66 28 -48.32 28 -49 28 C-48.67 26.35 -48.34 24.7 -48 23 C-38.72436868 20.25166479 -28.92254945 19.53872528 -20 24 C-17.58749273 18.6400004 -17.58749273 18.6400004 -16 13 C-15.34 13 -14.68 13 -14 13 C-13.9175 12.236875 -13.835 11.47375 -13.75 10.6875 C-12.84730645 7.45284809 -11.86406539 6.64900735 -9 5 C-8.34 5 -7.68 5 -7 5 C-6.67 4.34 -6.34 3.68 -6 3 C-2.42307692 0 -2.42307692 0 0 0 Z " fill="#FBC63A" transform="translate(117,45)"/>
<path d="M0 0 C0.33 0.66 0.66 1.32 1 2 C1.721875 2.226875 2.44375 2.45375 3.1875 2.6875 C7.23213556 4.57499659 9.6590231 7.21896762 12 11 C12.77978544 13.39726118 13.2835987 15.69164768 13.67578125 18.1796875 C13.82342874 20.01414815 13.82342874 20.01414815 15 21 C15.04080783 22.99958364 15.04254356 25.00045254 15 27 C15.928125 26.690625 16.85625 26.38125 17.8125 26.0625 C21.88152145 24.70615952 24.90428031 23.88187377 29.1875 23.9375 C30.08855469 23.94652344 30.98960938 23.95554687 31.91796875 23.96484375 C32.60503906 23.97644531 33.29210937 23.98804687 34 24 C34 24.66 34 25.32 34 26 C34.99 25.67 35.98 25.34 37 25 C42.35714286 27.35714286 42.35714286 27.35714286 44 29 C44.04080783 30.99958364 44.04254356 33.00045254 44 35 C43.34 35 42.68 35 42 35 C42 35.66 42 36.32 42 37 C39.24122821 35.94517549 36.82328949 34.88904224 34.3125 33.3125 C29.66138886 31.46960691 25.81928586 31.82265003 21 33 C17.65247442 34.81378992 17.65247442 34.81378992 15 37 C14.2575 37.350625 13.515 37.70125 12.75 38.0625 C10.65383728 39.00845852 10.65383728 39.00845852 9 42 C7.02 41.34 5.04 40.68 3 40 C3.309375 39.2575 3.61875 38.515 3.9375 37.75 C4.8094925 35.49307824 5.47667007 33.3549847 6 31 C6.66 31 7.32 31 8 31 C7.814375 30.113125 7.62875 29.22625 7.4375 28.3125 C7.01957516 25.14821189 7.19222258 23.05160358 8 20 C7.34 20 6.68 20 6 20 C5.79375 19.278125 5.5875 18.55625 5.375 17.8125 C3.6003512 14.18253654 1.13869148 12.4981422 -2 10 C-3.875 7.6875 -3.875 7.6875 -5 6 C-3.35 4.02 -1.7 2.04 0 0 Z M13 27 C13.33 27.66 13.66 28.32 14 29 C14.33 28.34 14.66 27.68 15 27 C14.34 27 13.68 27 13 27 Z " fill="#FBC83A" transform="translate(59,68)"/>
<path d="M0 0 C3.625 -0.1875 3.625 -0.1875 7 0 C8.49084832 4.47254497 8.49084832 8.52745503 7 13 C7.99 13.33 8.98 13.66 10 14 C10.33 14.99 10.66 15.98 11 17 C13.01818999 18.64121356 13.01818999 18.64121356 15.4375 20.125 C16.24058594 20.64320312 17.04367188 21.16140625 17.87109375 21.6953125 C19.94553997 23.00862664 19.94553997 23.00862664 22 24 C22 24.66 22 25.32 22 26 C23.98 25.67 25.96 25.34 28 25 C28.04241723 27.33294775 28.04092937 29.66702567 28 32 C27 33 27 33 24.0625 33.125 C21 33 21 33 19 32 C19 32.66 19 33.32 19 34 C17.96875 34.350625 16.9375 34.70125 15.875 35.0625 C11.49725993 36.92593722 8.49839879 39.97327668 6 44 C6 44.99 6 45.98 6 47 C5.34 47 4.68 47 4 47 C4.33 48.98 4.66 50.96 5 53 C2.04335481 54.4783226 -0.74229737 54.06032783 -4 54 C-4.43328368 47.06746106 -2.85991763 41.78987645 1 36 C1.66 36 2.32 36 3 36 C3 35.34 3 34.68 3 34 C3.66 34 4.32 34 5 34 C5 33.34 5 32.68 5 32 C6.32 31.67 7.64 31.34 9 31 C9 30.34 9 29.68 9 29 C9.99 28.67 10.98 28.34 12 28 C10.88625 27.13375 10.88625 27.13375 9.75 26.25 C3.14505283 20.84595231 -0.53208612 15.18805085 -1.875 6.625 C-2 3 -2 3 0 0 Z " fill="#FBC53C" transform="translate(77,8)"/>
<path d="M0 0 C3.125 0.375 3.125 0.375 6 1 C5.85930804 3.12534659 5.71229079 5.25027529 5.5625 7.375 C5.48128906 8.55835937 5.40007813 9.74171875 5.31640625 10.9609375 C5 14 5 14 4 16 C3.34 16 2.68 16 2 16 C1.773125 16.78375 1.54625 17.5675 1.3125 18.375 C0 21 0 21 -2.5625 22.1875 C-3.366875 22.455625 -4.17125 22.72375 -5 23 C-5.33 23.66 -5.66 24.32 -6 25 C-6.66 25.33 -7.32 25.66 -8 26 C-6.99554337 28.24071094 -6.12245015 29.87754985 -4.375 31.625 C-3.92125 32.07875 -3.4675 32.5325 -3 33 C-3 33.66 -3 34.32 -3 35 C-2.37738281 35.24621094 -1.75476563 35.49242187 -1.11328125 35.74609375 C2.11596534 37.66215319 2.49099897 39.9977439 3.5390625 43.46875 C4.27661408 47.51903324 3.70532825 50.96039278 3 55 C-1.75 56.125 -1.75 56.125 -4 55 C-4.34375 53.14453125 -4.34375 53.14453125 -4.5 50.8125 C-5.07523468 44.94881748 -5.72840596 40.87595896 -10.25 36.8125 C-13.29558553 34.3798625 -16.42033135 32.57156185 -20 31 C-20 30.34 -20 29.68 -20 29 C-21.65 29.33 -23.3 29.66 -25 30 C-27 26.25 -27 26.25 -27 24 C-26.443125 23.90203125 -25.88625 23.8040625 -25.3125 23.703125 C-17.07938764 22.08988001 -10.55506097 19.53536585 -5 13 C-3.22237329 10.33355993 -2.9486825 8.62794814 -2.5 5.375 C-2 2 -2 2 0 0 Z " fill="#FBC43B" transform="translate(49,59)"/>
<path d="M0 0 C1.9375 0.8125 1.9375 0.8125 4 2 C5.13643966 5.40931897 4.86747764 6.00335456 3.5625 9.1875 C3.13130859 10.26064453 3.13130859 10.26064453 2.69140625 11.35546875 C2.34916016 12.16951172 2.34916016 12.16951172 2 13 C1.34 13 0.68 13 0 13 C0.23807411 20.49933459 2.03854647 25.30087233 7 31 C8.63377642 32.05287814 10.29181597 33.0727001 12 34 C13.0625 35.9375 13.0625 35.9375 13 38 C11.1875 40.25 11.1875 40.25 9 42 C8.34 42 7.68 42 7 42 C7 41.34 7 40.68 7 40 C5.35 39.34 3.7 38.68 2 38 C2 37.34 2 36.68 2 36 C1.34 36 0.68 36 0 36 C-0.268125 35.401875 -0.53625 34.80375 -0.8125 34.1875 C-1.85407364 31.9691873 -1.85407364 31.9691873 -3.5625 30.625 C-5.67071276 28.24180297 -5.64485627 26.13710297 -6 23 C-6.18657671 21.54154825 -6.37409327 20.08321647 -6.5625 18.625 C-6.706875 17.42875 -6.85125 16.2325 -7 15 C-7.66 15.66 -8.32 16.32 -9 17 C-12.625 17.125 -12.625 17.125 -16 17 C-16 17.66 -16 18.32 -16 19 C-18.97 19 -21.94 19 -25 19 C-25 18.34 -25 17.68 -25 17 C-26.32 17.33 -27.64 17.66 -29 18 C-29 17.34 -29 16.68 -29 16 C-30.423125 15.9071875 -30.423125 15.9071875 -31.875 15.8125 C-32.90625 15.544375 -33.9375 15.27625 -35 15 C-36.375 12.4375 -36.375 12.4375 -37 10 C-36.34 10 -35.68 10 -35 10 C-34.34 8.68 -33.68 7.36 -33 6 C-29.51329166 7.1094072 -26.22515763 8.26337666 -23 10 C-23 10.66 -23 11.32 -23 12 C-17.68014296 11.48781864 -13.4618602 10.13365448 -8.6875 7.6875 C-8.06810547 7.39166016 -7.44871094 7.09582031 -6.81054688 6.79101562 C-4.07321594 5.41491983 -2.24469561 4.38490686 -0.58203125 1.76953125 C-0.38996094 1.18558594 -0.19789062 0.60164062 0 0 Z " fill="#FBC73B" transform="translate(61,11)"/>
</svg>
